<?xml version="1.0" encoding="UTF-8"?>
<svg height="16px" viewBox="0 0 16 16" width="16px" xmlns="http://www.w3.org/2000/svg" xmlns:xlink="http://www.w3.org/1999/xlink">
    <filter id="a" height="100%" width="100%" x="0%" y="0%">
        <feColorMatrix color-interpolation-filters="sRGB" values="0 0 0 0 1 0 0 0 0 1 0 0 0 0 1 0 0 0 1 0"/>
    </filter>
    <mask id="b">
        <g filter="url(#a)">
            <rect fill-opacity="0.332785" height="19.2" width="19.2" x="-1.6" y="-1.6"/>
        </g>
    </mask>
    <linearGradient id="c" gradientUnits="userSpaceOnUse">
        <stop offset="0"/>
        <stop offset="0.625" stop-opacity="0.498039"/>
        <stop offset="1" stop-opacity="0"/>
    </linearGradient>
    <radialGradient id="d" cx="72" cy="252" gradientTransform="matrix(0.875 0 0 0.5625 17 -45.75)" r="32" xlink:href="#c"/>
    <clipPath id="e">
        <rect height="152" width="192"/>
    </clipPath>
    <mask id="f">
        <g filter="url(#a)">
            <rect fill-opacity="0.332785" height="19.2" width="19.2" x="-1.6" y="-1.6"/>
        </g>
    </mask>
    <radialGradient id="g" cx="72" cy="252" gradientTransform="matrix(0.5625 0 0 0.361607 37.5 13.303574)" r="32" xlink:href="#c"/>
    <clipPath id="h">
        <rect height="152" width="192"/>
    </clipPath>
    <path d="m 1 0 c 0.550781 0 1 0.449219 1 1 s -0.449219 1 -1 1 s -1 -0.449219 -1 -1 s 0.449219 -1 1 -1 z m 0 0"/>
    <path d="m 1 13 c 0.550781 0 1 0.449219 1 1 s -0.449219 1 -1 1 s -1 -0.449219 -1 -1 s 0.449219 -1 1 -1 z m 0 0"/>
    <path d="m 14 13 c 0.550781 0 1 0.449219 1 1 s -0.449219 1 -1 1 s -1 -0.449219 -1 -1 s 0.449219 -1 1 -1 z m 0 0"/>
    <path d="m 14 0 c 0.550781 0 1 0.449219 1 1 s -0.449219 1 -1 1 s -1 -0.449219 -1 -1 s 0.449219 -1 1 -1 z m 0 0"/>
    <path d="m 1 3 h 1 v 1 h -1 z m 0 0"/>
    <path d="m 1 5 h 1 v 1 h -1 z m 0 0"/>
    <path d="m 1 7 h 1 v 1 h -1 z m 0 0"/>
    <path d="m 1 9 h 1 v 1 h -1 z m 0 0"/>
    <path d="m 1 11 h 1 v 1 h -1 z m 0 0"/>
    <path d="m 13 3 h 1 v 1 h -1 z m 0 0"/>
    <path d="m 13 5 h 1 v 1 h -1 z m 0 0"/>
    <path d="m 13 7 h 1 v 1 h -1 z m 0 0"/>
    <path d="m 13 9 h 1 v 1 h -1 z m 0 0"/>
    <path d="m 13 11 h 1 v 1 h -1 z m 0 0"/>
    <path d="m 12 1 v 1 h -1 v -1 z m 0 0"/>
    <path d="m 10 1 v 1 h -1 v -1 z m 0 0"/>
    <path d="m 8 1 v 1 h -1 v -1 z m 0 0"/>
    <path d="m 6 1 v 1 h -1 v -1 z m 0 0"/>
    <path d="m 4 1 v 1 h -1 v -1 z m 0 0"/>
    <path d="m 12 13 v 1 h -1 v -1 z m 0 0"/>
    <path d="m 10 13 v 1 h -1 v -1 z m 0 0"/>
    <path d="m 8 13 v 1 h -1 v -1 z m 0 0"/>
    <path d="m 6 13 v 1 h -1 v -1 z m 0 0"/>
    <path d="m 4 13 v 1 h -1 v -1 z m 0 0"/>
    <path d="m 8.136719 1.25 c -0.511719 -0.011719 -1.007813 0.105469 -1.511719 0.300781 c -1.011719 0.386719 -2.050781 1.097657 -3.011719 2.0625 c -0.964843 0.960938 -1.675781 2 -2.0625 3.011719 c -0.195312 0.503906 -0.3125 1 -0.300781 1.511719 c 0.011719 0.515625 0.183594 1.074219 0.59375 1.484375 l 3.535156 3.535156 c 0.410156 0.410156 0.96875 0.582031 1.484375 0.59375 c 0.511719 0.011719 1.007813 -0.105469 1.511719 -0.300781 c 1.011719 -0.386719 2.050781 -1.097657 3.011719 -2.0625 c 0.964843 -0.960938 1.675781 -2 2.0625 -3.011719 c 0.195312 -0.503906 0.3125 -1 0.300781 -1.511719 c -0.011719 -0.515625 -0.183594 -1.074219 -0.59375 -1.484375 l -3.535156 -3.535156 c -0.410156 -0.410156 -0.96875 -0.582031 -1.484375 -0.59375 z m -0.046875 2 c 0.148437 0.003906 0.136718 0.027344 0.117187 0.007812 l 3.535157 3.535157 c -0.019532 -0.019531 0.003906 -0.03125 0.007812 0.117187 c 0.003906 0.148438 -0.039062 0.421875 -0.164062 0.75 c -0.253907 0.652344 -0.816407 1.519532 -1.609376 2.316406 c -0.796874 0.792969 -1.664062 1.355469 -2.316406 1.609376 c -0.328125 0.125 -0.601562 0.167968 -0.75 0.164062 c -0.148437 -0.003906 -0.136718 -0.027344 -0.117187 -0.007812 l -3.535157 -3.535157 c 0.019532 0.019531 -0.003906 0.03125 -0.007812 -0.117187 c -0.003906 -0.148438 0.039062 -0.421875 0.167969 -0.746094 c 0.25 -0.65625 0.8125 -1.523438 1.609375 -2.320312 c 0.792968 -0.792969 1.660156 -1.355469 2.316406 -1.605469 c 0.324219 -0.128907 0.597656 -0.171875 0.746094 -0.167969 z m 0 0"/>
    <g mask="url(#b)">
        <g clip-path="url(#e)" transform="matrix(1 0 0 1 -168 -16)">
            <path d="m 108 96 c 0 9.941406 -12.535156 18 -28 18 s -28 -8.058594 -28 -18 s 12.535156 -18 28 -18 s 28 8.058594 28 18 z m 0 0" fill="url(#d)"/>
        </g>
    </g>
    <g mask="url(#f)">
        <g clip-path="url(#h)" transform="matrix(1 0 0 1 -168 -16)">
            <path d="m 96 104.429688 c 0 6.390624 -8.058594 11.570312 -18 11.570312 s -18 -5.179688 -18 -11.570312 c 0 -6.390626 8.058594 -11.574219 18 -11.574219 s 18 5.183593 18 11.574219 z m 0 0" fill="url(#g)"/>
        </g>
    </g>
    <path d="m 9.175781 3.019531 c -0.621093 -0.621093 -1.558593 -0.734375 -2.472656 -0.507812 c -0.914063 0.226562 -1.863281 0.777343 -2.6875 1.601562 s -1.378906 1.773438 -1.601563 2.6875 c -0.226562 0.917969 -0.117187 1.855469 0.503907 2.476563 c 0.621093 0.621094 1.558593 0.730468 2.472656 0.503906 c 0.917969 -0.222656 1.867187 -0.777344 2.691406 -1.601562 c 0.824219 -0.824219 1.375 -1.773438 1.601563 -2.6875 c 0.226562 -0.914063 0.113281 -1.851563 -0.507813 -2.472657 z m -0.707031 0.707031 c 0.308594 0.304688 0.414062 0.828126 0.242188 1.527344 c -0.167969 0.695313 -0.628907 1.511719 -1.335938 2.21875 c -0.710938 0.707032 -1.523438 1.167969 -2.21875 1.339844 c -0.699219 0.167969 -1.222656 0.0625 -1.53125 -0.242188 c -0.304688 -0.308593 -0.410156 -0.832031 -0.242188 -1.53125 c 0.171876 -0.695312 0.632813 -1.507812 1.339844 -2.21875 c 0.707032 -0.707031 1.523438 -1.167968 2.21875 -1.335937 c 0.699219 -0.171875 1.222656 -0.066406 1.527344 0.242187 z m 0 0"/>
</svg>
