<?xml version="1.0" encoding="UTF-8"?>
<svg height="128px" viewBox="0 0 128 128" width="128px" xmlns="http://www.w3.org/2000/svg" xmlns:xlink="http://www.w3.org/1999/xlink">
    <filter id="a" height="100%" width="100%" x="0%" y="0%">
        <feColorMatrix color-interpolation-filters="sRGB" values="0 0 0 0 1 0 0 0 0 1 0 0 0 0 1 0 0 0 1 0"/>
    </filter>
    <linearGradient id="b" gradientUnits="userSpaceOnUse" x1="8.0000155" x2="120.0000155" y1="115.999979" y2="115.999979">
        <stop offset="0" stop-color="#77767b"/>
        <stop offset="0.0357143" stop-color="#c0bfbc"/>
        <stop offset="0.0713653" stop-color="#9a9996"/>
        <stop offset="0.928571" stop-color="#9a9996"/>
        <stop offset="0.964286" stop-color="#c0bfbc"/>
        <stop offset="1" stop-color="#77767b"/>
    </linearGradient>
    <mask id="c">
        <g filter="url(#a)">
            <rect fill-opacity="0.332785" height="153.6" width="153.6" x="-12.8" y="-12.8"/>
        </g>
    </mask>
    <linearGradient id="d" gradientUnits="userSpaceOnUse">
        <stop offset="0"/>
        <stop offset="0.625" stop-opacity="0.498039"/>
        <stop offset="1" stop-opacity="0"/>
    </linearGradient>
    <radialGradient id="e" cx="72" cy="252" gradientTransform="matrix(0.875 0 0 0.5625 17 -45.75)" r="32" xlink:href="#d"/>
    <clipPath id="f">
        <rect height="152" width="192"/>
    </clipPath>
    <radialGradient id="g" cx="-97.260933" cy="196.540909" gradientTransform="matrix(-1.445109 -2.502199 1.905307 -1.100383 -442.082035 8.121707)" gradientUnits="userSpaceOnUse" r="29.885719">
        <stop offset="0" stop-color="#62a0ea"/>
        <stop offset="0.551724" stop-color="#f66151"/>
        <stop offset="0.743683" stop-color="#ffa348"/>
        <stop offset="1" stop-color="#f6d32d"/>
    </radialGradient>
    <mask id="h">
        <g filter="url(#a)">
            <rect fill-opacity="0.332785" height="153.6" width="153.6" x="-12.8" y="-12.8"/>
        </g>
    </mask>
    <radialGradient id="i" cx="72" cy="252" gradientTransform="matrix(0.5625 0 0 0.361607 37.5 13.303574)" r="32" xlink:href="#d"/>
    <clipPath id="j">
        <rect height="152" width="192"/>
    </clipPath>
    <linearGradient id="k" gradientUnits="userSpaceOnUse" x1="54" x2="87.392433" y1="82" y2="45.261414">
        <stop offset="0" stop-color="#e5a50a"/>
        <stop offset="0.326632" stop-color="#c01c28"/>
        <stop offset="0.707703" stop-color="#9141ac"/>
        <stop offset="1" stop-color="#3584e4"/>
    </linearGradient>
    <path d="m 16 40 h 96 c 4.417969 0 8 3.582031 8 8 v 60 c 0 4.417969 -3.582031 8 -8 8 h -96 c -4.417969 0 -8 -3.582031 -8 -8 v -60 c 0 -4.417969 3.582031 -8 8 -8 z m 0 0" fill="url(#b)"/>
    <path d="m 16 28 h 96 c 4.417969 0 8 3.582031 8 8 v 68 c 0 4.417969 -3.582031 8 -8 8 h -96 c -4.417969 0 -8 -3.582031 -8 -8 v -68 c 0 -4.417969 3.582031 -8 8 -8 z m 0 0" fill="#deddda"/>
    <g mask="url(#c)">
        <g clip-path="url(#f)" transform="matrix(1 0 0 1 -8 -16)">
            <path d="m 108 96 c 0 9.941406 -12.535156 18 -28 18 s -28 -8.058594 -28 -18 s 12.535156 -18 28 -18 s 28 8.058594 28 18 z m 0 0" fill="url(#e)"/>
        </g>
    </g>
    <g fill="#62a0ea">
        <path d="m 38 102 c 0 1.105469 -0.894531 2 -2 2 s -2 -0.894531 -2 -2 s 0.894531 -2 2 -2 s 2 0.894531 2 2 z m 0 0"/>
        <path d="m 30 102 c 0 1.105469 -0.894531 2 -2 2 s -2 -0.894531 -2 -2 s 0.894531 -2 2 -2 s 2 0.894531 2 2 z m 0 0"/>
        <path d="m 54 102 c 0 1.105469 -0.894531 2 -2 2 s -2 -0.894531 -2 -2 s 0.894531 -2 2 -2 s 2 0.894531 2 2 z m 0 0"/>
        <path d="m 46 102 c 0 1.105469 -0.894531 2 -2 2 s -2 -0.894531 -2 -2 s 0.894531 -2 2 -2 s 2 0.894531 2 2 z m 0 0"/>
        <path d="m 70 102 c 0 1.105469 -0.894531 2 -2 2 s -2 -0.894531 -2 -2 s 0.894531 -2 2 -2 s 2 0.894531 2 2 z m 0 0"/>
        <path d="m 62 102 c 0 1.105469 -0.894531 2 -2 2 s -2 -0.894531 -2 -2 s 0.894531 -2 2 -2 s 2 0.894531 2 2 z m 0 0"/>
        <path d="m 86 102 c 0 1.105469 -0.894531 2 -2 2 s -2 -0.894531 -2 -2 s 0.894531 -2 2 -2 s 2 0.894531 2 2 z m 0 0"/>
        <path d="m 78 102 c 0 1.105469 -0.894531 2 -2 2 s -2 -0.894531 -2 -2 s 0.894531 -2 2 -2 s 2 0.894531 2 2 z m 0 0"/>
        <path d="m 102 102 c 0 1.105469 -0.894531 2 -2 2 s -2 -0.894531 -2 -2 s 0.894531 -2 2 -2 s 2 0.894531 2 2 z m 0 0"/>
        <path d="m 94 102 c 0 1.105469 -0.894531 2 -2 2 s -2 -0.894531 -2 -2 s 0.894531 -2 2 -2 s 2 0.894531 2 2 z m 0 0"/>
        <path d="m 18 38 c -1.105469 0 -2 -0.894531 -2 -2 s 0.894531 -2 2 -2 s 2 0.894531 2 2 s -0.894531 2 -2 2 z m 0 0"/>
        <path d="m 18 30 c -1.105469 0 -2 -0.894531 -2 -2 s 0.894531 -2 2 -2 s 2 0.894531 2 2 s -0.894531 2 -2 2 z m 0 0"/>
        <path d="m 18 54 c -1.105469 0 -2 -0.894531 -2 -2 s 0.894531 -2 2 -2 s 2 0.894531 2 2 s -0.894531 2 -2 2 z m 0 0"/>
        <path d="m 18 46 c -1.105469 0 -2 -0.894531 -2 -2 s 0.894531 -2 2 -2 s 2 0.894531 2 2 s -0.894531 2 -2 2 z m 0 0"/>
        <path d="m 18 70 c -1.105469 0 -2 -0.894531 -2 -2 s 0.894531 -2 2 -2 s 2 0.894531 2 2 s -0.894531 2 -2 2 z m 0 0"/>
        <path d="m 18 62 c -1.105469 0 -2 -0.894531 -2 -2 s 0.894531 -2 2 -2 s 2 0.894531 2 2 s -0.894531 2 -2 2 z m 0 0"/>
        <path d="m 18 86 c -1.105469 0 -2 -0.894531 -2 -2 s 0.894531 -2 2 -2 s 2 0.894531 2 2 s -0.894531 2 -2 2 z m 0 0"/>
        <path d="m 18 78 c -1.105469 0 -2 -0.894531 -2 -2 s 0.894531 -2 2 -2 s 2 0.894531 2 2 s -0.894531 2 -2 2 z m 0 0"/>
        <path d="m 18 102 c -1.105469 0 -2 -0.894531 -2 -2 s 0.894531 -2 2 -2 s 2 0.894531 2 2 s -0.894531 2 -2 2 z m 0 0"/>
        <path d="m 18 94 c -1.105469 0 -2 -0.894531 -2 -2 s 0.894531 -2 2 -2 s 2 0.894531 2 2 s -0.894531 2 -2 2 z m 0 0"/>
        <path d="m 110 38 c -1.105469 0 -2 -0.894531 -2 -2 s 0.894531 -2 2 -2 s 2 0.894531 2 2 s -0.894531 2 -2 2 z m 0 0"/>
        <path d="m 110 30 c -1.105469 0 -2 -0.894531 -2 -2 s 0.894531 -2 2 -2 s 2 0.894531 2 2 s -0.894531 2 -2 2 z m 0 0"/>
        <path d="m 110 54 c -1.105469 0 -2 -0.894531 -2 -2 s 0.894531 -2 2 -2 s 2 0.894531 2 2 s -0.894531 2 -2 2 z m 0 0"/>
        <path d="m 110 46 c -1.105469 0 -2 -0.894531 -2 -2 s 0.894531 -2 2 -2 s 2 0.894531 2 2 s -0.894531 2 -2 2 z m 0 0"/>
        <path d="m 110 70 c -1.105469 0 -2 -0.894531 -2 -2 s 0.894531 -2 2 -2 s 2 0.894531 2 2 s -0.894531 2 -2 2 z m 0 0"/>
        <path d="m 110 62 c -1.105469 0 -2 -0.894531 -2 -2 s 0.894531 -2 2 -2 s 2 0.894531 2 2 s -0.894531 2 -2 2 z m 0 0"/>
        <path d="m 110 86 c -1.105469 0 -2 -0.894531 -2 -2 s 0.894531 -2 2 -2 s 2 0.894531 2 2 s -0.894531 2 -2 2 z m 0 0"/>
        <path d="m 110 78 c -1.105469 0 -2 -0.894531 -2 -2 s 0.894531 -2 2 -2 s 2 0.894531 2 2 s -0.894531 2 -2 2 z m 0 0"/>
        <path d="m 110 102 c -1.105469 0 -2 -0.894531 -2 -2 s 0.894531 -2 2 -2 s 2 0.894531 2 2 s -0.894531 2 -2 2 z m 0 0"/>
        <path d="m 110 94 c -1.105469 0 -2 -0.894531 -2 -2 s 0.894531 -2 2 -2 s 2 0.894531 2 2 s -0.894531 2 -2 2 z m 0 0"/>
        <path d="m 38 18 c 0 1.105469 -0.894531 2 -2 2 s -2 -0.894531 -2 -2 s 0.894531 -2 2 -2 s 2 0.894531 2 2 z m 0 0"/>
        <path d="m 30 18 c 0 1.105469 -0.894531 2 -2 2 s -2 -0.894531 -2 -2 s 0.894531 -2 2 -2 s 2 0.894531 2 2 z m 0 0"/>
        <path d="m 54 18 c 0 1.105469 -0.894531 2 -2 2 s -2 -0.894531 -2 -2 s 0.894531 -2 2 -2 s 2 0.894531 2 2 z m 0 0"/>
        <path d="m 46 18 c 0 1.105469 -0.894531 2 -2 2 s -2 -0.894531 -2 -2 s 0.894531 -2 2 -2 s 2 0.894531 2 2 z m 0 0"/>
        <path d="m 70 18 c 0 1.105469 -0.894531 2 -2 2 s -2 -0.894531 -2 -2 s 0.894531 -2 2 -2 s 2 0.894531 2 2 z m 0 0"/>
        <path d="m 62 18 c 0 1.105469 -0.894531 2 -2 2 s -2 -0.894531 -2 -2 s 0.894531 -2 2 -2 s 2 0.894531 2 2 z m 0 0"/>
        <path d="m 86 18 c 0 1.105469 -0.894531 2 -2 2 s -2 -0.894531 -2 -2 s 0.894531 -2 2 -2 s 2 0.894531 2 2 z m 0 0"/>
        <path d="m 78 18 c 0 1.105469 -0.894531 2 -2 2 s -2 -0.894531 -2 -2 s 0.894531 -2 2 -2 s 2 0.894531 2 2 z m 0 0"/>
        <path d="m 102 18 c 0 1.105469 -0.894531 2 -2 2 s -2 -0.894531 -2 -2 s 0.894531 -2 2 -2 s 2 0.894531 2 2 z m 0 0"/>
        <path d="m 94 18 c 0 1.105469 -0.894531 2 -2 2 s -2 -0.894531 -2 -2 s 0.894531 -2 2 -2 s 2 0.894531 2 2 z m 0 0"/>
    </g>
    <path d="m 110 96 c 3.3125 0 6 2.6875 6 6 s -2.6875 6 -6 6 s -6 -2.6875 -6 -6 s 2.6875 -6 6 -6 z m 0 0" fill="#3584e4"/>
    <path d="m 110 12 c 3.3125 0 6 2.6875 6 6 s -2.6875 6 -6 6 s -6 -2.6875 -6 -6 s 2.6875 -6 6 -6 z m 0 0" fill="#3584e4"/>
    <path d="m 18 96 c 3.3125 0 6 2.6875 6 6 s -2.6875 6 -6 6 s -6 -2.6875 -6 -6 s 2.6875 -6 6 -6 z m 0 0" fill="#3584e4"/>
    <path d="m 18 12 c 3.3125 0 6 2.6875 6 6 s -2.6875 6 -6 6 s -6 -2.6875 -6 -6 s 2.6875 -6 6 -6 z m 0 0" fill="#3584e4"/>
    <path d="m 18 15 c 1.65625 0 3 1.34375 3 3 s -1.34375 3 -3 3 s -3 -1.34375 -3 -3 s 1.34375 -3 3 -3 z m 0 0" fill="#99c1f1"/>
    <path d="m 110 15 c 1.65625 0 3 1.34375 3 3 s -1.34375 3 -3 3 s -3 -1.34375 -3 -3 s 1.34375 -3 3 -3 z m 0 0" fill="#99c1f1"/>
    <path d="m 18 99 c 1.65625 0 3 1.34375 3 3 s -1.34375 3 -3 3 s -3 -1.34375 -3 -3 s 1.34375 -3 3 -3 z m 0 0" fill="#99c1f1"/>
    <path d="m 110 99 c 1.65625 0 3 1.34375 3 3 s -1.34375 3 -3 3 s -3 -1.34375 -3 -3 s 1.34375 -3 3 -3 z m 0 0" fill="#99c1f1"/>
    <path d="m 69.976562 19.464844 c 7.210938 7.214844 3.597657 22.523437 -8.074218 34.195312 s -26.980469 15.285156 -34.191406 8.070313 c -7.214844 -7.210938 -3.601563 -22.519531 8.070312 -34.191407 c 11.671875 -11.671874 26.980469 -15.285156 34.195312 -8.074218 z m 0 0" fill="url(#g)"/>
    <g mask="url(#h)">
        <g clip-path="url(#j)" transform="matrix(1 0 0 1 -8 -16)">
            <path d="m 96 104.429688 c 0 6.390624 -8.058594 11.570312 -18 11.570312 s -18 -5.179688 -18 -11.570312 c 0 -6.390626 8.058594 -11.574219 18 -11.574219 s 18 5.183593 18 11.574219 z m 0 0" fill="url(#i)"/>
        </g>
    </g>
    <path d="m 28.867188 62.886719 l 29.203124 29.203125 l 2.445313 2.480468 c 8.054687 4.199219 21.636719 -0.464843 31.746094 -10.550781 c 10.085937 -10.109375 14.628906 -23.671875 10.429687 -31.726562 c -10.398437 -10.671875 -21.023437 -21.132813 -31.558594 -31.671875 l -0.125 0.125 c 5.761719 7.695312 1.8125 21.96875 -9.105468 32.914062 c -10.941406 10.917969 -25.214844 14.867188 -32.914063 9.105469 z m 0 0" fill="url(#k)"/>
</svg>
