<?xml version="1.0" encoding="UTF-8" standalone="no"?>
<svg
   height="128px"
   viewBox="0 0 128 128"
   width="128px"
   version="1.1"
   id="svg134"
   sodipodi:docname="io.github.nokse22.Exhibit.Devel.svg"
   inkscape:version="1.3.2 (091e20ef0f, 2023-11-25)"
   xmlns:inkscape="http://www.inkscape.org/namespaces/inkscape"
   xmlns:sodipodi="http://sodipodi.sourceforge.net/DTD/sodipodi-0.dtd"
   xmlns:xlink="http://www.w3.org/1999/xlink"
   xmlns="http://www.w3.org/2000/svg"
   xmlns:svg="http://www.w3.org/2000/svg">
  <sodipodi:namedview
     id="namedview134"
     pagecolor="#505050"
     bordercolor="#ffffff"
     borderopacity="1"
     inkscape:showpageshadow="0"
     inkscape:pageopacity="0"
     inkscape:pagecheckerboard="1"
     inkscape:deskcolor="#d1d1d1"
     inkscape:current-layer="svg134" />
  <defs
     id="defs78">
    <filter
       id="a"
       height="1"
       width="1"
       x="0"
       y="0">
      <feColorMatrix
         color-interpolation-filters="sRGB"
         values="0 0 0 0 1 0 0 0 0 1 0 0 0 0 1 0 0 0 1 0"
         id="feColorMatrix1" />
    </filter>
    <linearGradient
       id="b"
       gradientUnits="userSpaceOnUse"
       x1="8.0000155"
       x2="120.0000155"
       y1="115.999979"
       y2="115.999979">
      <stop
         offset="0"
         stop-color="#77767b"
         id="stop1" />
      <stop
         offset="0.0357143"
         stop-color="#c0bfbc"
         id="stop2" />
      <stop
         offset="0.0713653"
         stop-color="#9a9996"
         id="stop3" />
      <stop
         offset="0.928571"
         stop-color="#9a9996"
         id="stop4" />
      <stop
         offset="0.964286"
         stop-color="#c0bfbc"
         id="stop5" />
      <stop
         offset="1"
         stop-color="#77767b"
         id="stop6" />
    </linearGradient>
    <mask
       id="c">
      <g
         filter="url(#a)"
         id="g6">
        <rect
           fill-opacity="0.332785"
           height="153.6"
           width="153.6"
           x="-12.8"
           y="-12.8"
           id="rect6" />
      </g>
    </mask>
    <radialGradient
       id="d"
       cx="-97.260933"
       cy="196.540909"
       gradientTransform="matrix(-1.445109 -2.502199 1.905307 -1.100383 -442.082035 8.121707)"
       gradientUnits="userSpaceOnUse"
       r="29.885719">
      <stop
         offset="0"
         stop-color="#62a0ea"
         id="stop7" />
      <stop
         offset="0.551724"
         stop-color="#f66151"
         id="stop8" />
      <stop
         offset="0.743683"
         stop-color="#ffa348"
         id="stop9" />
      <stop
         offset="1"
         stop-color="#f6d32d"
         id="stop10" />
    </radialGradient>
    <mask
       id="e">
      <g
         filter="url(#a)"
         id="g10">
        <rect
           fill-opacity="0.332785"
           height="153.6"
           width="153.6"
           x="-12.8"
           y="-12.8"
           id="rect10" />
      </g>
    </mask>
    <linearGradient
       id="f"
       gradientUnits="userSpaceOnUse"
       x1="54"
       x2="87.392433"
       y1="82"
       y2="45.261414">
      <stop
         offset="0"
         stop-color="#e5a50a"
         id="stop11" />
      <stop
         offset="0.326632"
         stop-color="#c01c28"
         id="stop12" />
      <stop
         offset="0.707703"
         stop-color="#9141ac"
         id="stop13" />
      <stop
         offset="1"
         stop-color="#3584e4"
         id="stop14" />
    </linearGradient>
    <clipPath
       id="g">
      <path
         d="m 0 0 h 128 v 128 h -128 z m 0 0"
         id="path14" />
    </clipPath>
    <mask
       id="h">
      <g
         filter="url(#a)"
         id="g14">
        <rect
           fill-opacity="0.332785"
           height="221.184"
           width="221.184"
           x="-46.592"
           y="-46.592"
           id="rect14" />
      </g>
    </mask>
    <linearGradient
       id="i"
       gradientUnits="userSpaceOnUse">
      <stop
         offset="0"
         id="stop15" />
      <stop
         offset="0.625"
         stop-opacity="0.498039"
         id="stop16" />
      <stop
         offset="1"
         stop-opacity="0"
         id="stop17" />
    </linearGradient>
    <radialGradient
       id="j"
       cx="72"
       cy="252"
       gradientTransform="matrix(0.875 0 0 0.5625 17 -45.75)"
       r="32"
       xlink:href="#i" />
    <clipPath
       id="k">
      <rect
         height="152"
         width="192"
         id="rect17" />
    </clipPath>
    <g
       id="l"
       clip-path="url(#k)">
      <path
         d="m 108 96 c 0 9.941406 -12.535156 18 -28 18 s -28 -8.058594 -28 -18 s 12.535156 -18 28 -18 s 28 8.058594 28 18 z m 0 0"
         fill="url(#j)"
         id="path17" />
    </g>
    <clipPath
       id="m">
      <path
         d="m 0 0 h 128 v 128 h -128 z m 0 0"
         id="path18" />
    </clipPath>
    <mask
       id="n">
      <g
         filter="url(#a)"
         id="g18">
        <rect
           fill-opacity="0.332785"
           height="221.184"
           width="221.184"
           x="-46.592"
           y="-46.592"
           id="rect18" />
      </g>
    </mask>
    <radialGradient
       id="o"
       cx="72"
       cy="252"
       gradientTransform="matrix(0.5625 0 0 0.361607 37.5 13.303574)"
       r="32"
       xlink:href="#i" />
    <clipPath
       id="p">
      <rect
         height="152"
         width="192"
         id="rect19" />
    </clipPath>
    <g
       id="q"
       clip-path="url(#p)">
      <path
         d="m 96 104.429688 c 0 6.390624 -8.058594 11.570312 -18 11.570312 s -18 -5.179688 -18 -11.570312 c 0 -6.390626 8.058594 -11.574219 18 -11.574219 s 18 5.183593 18 11.574219 z m 0 0"
         fill="url(#o)"
         id="path19" />
    </g>
    <clipPath
       id="r">
      <rect
         height="128"
         width="128"
         id="rect20" />
    </clipPath>
    <clipPath
       id="s">
      <rect
         height="128"
         width="128"
         id="rect21" />
    </clipPath>
    <mask
       id="t">
      <g
         filter="url(#a)"
         id="g75">
        <g
           clip-path="url(#s)"
           filter="url(#a)"
           id="g74">
          <g
             clip-path="url(#r)"
             id="g73">
            <path
               d="m 16 40 h 96 c 4.417969 0 8 3.582031 8 8 v 60 c 0 4.417969 -3.582031 8 -8 8 h -96 c -4.417969 0 -8 -3.582031 -8 -8 v -60 c 0 -4.417969 3.582031 -8 8 -8 z m 0 0"
               fill="url(#b)"
               id="path21" />
            <path
               d="m 16 28 h 96 c 4.417969 0 8 3.582031 8 8 v 68 c 0 4.417969 -3.582031 8 -8 8 h -96 c -4.417969 0 -8 -3.582031 -8 -8 v -68 c 0 -4.417969 3.582031 -8 8 -8 z m 0 0"
               fill="#deddda"
               id="path22" />
            <g
               clip-path="url(#g)"
               id="g23">
              <g
                 mask="url(#h)"
                 id="g22">
                <use
                   transform="matrix(1 0 0 1 -8 -16)"
                   xlink:href="#l"
                   id="use22" />
              </g>
            </g>
            <path
               d="m 38 102 c 0 1.105469 -0.894531 2 -2 2 s -2 -0.894531 -2 -2 s 0.894531 -2 2 -2 s 2 0.894531 2 2 z m 0 0"
               fill="#62a0ea"
               id="path23" />
            <path
               d="m 30 102 c 0 1.105469 -0.894531 2 -2 2 s -2 -0.894531 -2 -2 s 0.894531 -2 2 -2 s 2 0.894531 2 2 z m 0 0"
               fill="#62a0ea"
               id="path24" />
            <path
               d="m 54 102 c 0 1.105469 -0.894531 2 -2 2 s -2 -0.894531 -2 -2 s 0.894531 -2 2 -2 s 2 0.894531 2 2 z m 0 0"
               fill="#62a0ea"
               id="path25" />
            <path
               d="m 46 102 c 0 1.105469 -0.894531 2 -2 2 s -2 -0.894531 -2 -2 s 0.894531 -2 2 -2 s 2 0.894531 2 2 z m 0 0"
               fill="#62a0ea"
               id="path26" />
            <path
               d="m 70 102 c 0 1.105469 -0.894531 2 -2 2 s -2 -0.894531 -2 -2 s 0.894531 -2 2 -2 s 2 0.894531 2 2 z m 0 0"
               fill="#62a0ea"
               id="path27" />
            <path
               d="m 62 102 c 0 1.105469 -0.894531 2 -2 2 s -2 -0.894531 -2 -2 s 0.894531 -2 2 -2 s 2 0.894531 2 2 z m 0 0"
               fill="#62a0ea"
               id="path28" />
            <path
               d="m 86 102 c 0 1.105469 -0.894531 2 -2 2 s -2 -0.894531 -2 -2 s 0.894531 -2 2 -2 s 2 0.894531 2 2 z m 0 0"
               fill="#62a0ea"
               id="path29" />
            <path
               d="m 78 102 c 0 1.105469 -0.894531 2 -2 2 s -2 -0.894531 -2 -2 s 0.894531 -2 2 -2 s 2 0.894531 2 2 z m 0 0"
               fill="#62a0ea"
               id="path30" />
            <path
               d="m 102 102 c 0 1.105469 -0.894531 2 -2 2 s -2 -0.894531 -2 -2 s 0.894531 -2 2 -2 s 2 0.894531 2 2 z m 0 0"
               fill="#62a0ea"
               id="path31" />
            <path
               d="m 94 102 c 0 1.105469 -0.894531 2 -2 2 s -2 -0.894531 -2 -2 s 0.894531 -2 2 -2 s 2 0.894531 2 2 z m 0 0"
               fill="#62a0ea"
               id="path32" />
            <path
               d="m 18 38 c -1.105469 0 -2 -0.894531 -2 -2 s 0.894531 -2 2 -2 s 2 0.894531 2 2 s -0.894531 2 -2 2 z m 0 0"
               fill="#62a0ea"
               id="path33" />
            <path
               d="m 18 30 c -1.105469 0 -2 -0.894531 -2 -2 s 0.894531 -2 2 -2 s 2 0.894531 2 2 s -0.894531 2 -2 2 z m 0 0"
               fill="#62a0ea"
               id="path34" />
            <path
               d="m 18 54 c -1.105469 0 -2 -0.894531 -2 -2 s 0.894531 -2 2 -2 s 2 0.894531 2 2 s -0.894531 2 -2 2 z m 0 0"
               fill="#62a0ea"
               id="path35" />
            <path
               d="m 18 46 c -1.105469 0 -2 -0.894531 -2 -2 s 0.894531 -2 2 -2 s 2 0.894531 2 2 s -0.894531 2 -2 2 z m 0 0"
               fill="#62a0ea"
               id="path36" />
            <path
               d="m 18 70 c -1.105469 0 -2 -0.894531 -2 -2 s 0.894531 -2 2 -2 s 2 0.894531 2 2 s -0.894531 2 -2 2 z m 0 0"
               fill="#62a0ea"
               id="path37" />
            <path
               d="m 18 62 c -1.105469 0 -2 -0.894531 -2 -2 s 0.894531 -2 2 -2 s 2 0.894531 2 2 s -0.894531 2 -2 2 z m 0 0"
               fill="#62a0ea"
               id="path38" />
            <path
               d="m 18 86 c -1.105469 0 -2 -0.894531 -2 -2 s 0.894531 -2 2 -2 s 2 0.894531 2 2 s -0.894531 2 -2 2 z m 0 0"
               fill="#62a0ea"
               id="path39" />
            <path
               d="m 18 78 c -1.105469 0 -2 -0.894531 -2 -2 s 0.894531 -2 2 -2 s 2 0.894531 2 2 s -0.894531 2 -2 2 z m 0 0"
               fill="#62a0ea"
               id="path40" />
            <path
               d="m 18 102 c -1.105469 0 -2 -0.894531 -2 -2 s 0.894531 -2 2 -2 s 2 0.894531 2 2 s -0.894531 2 -2 2 z m 0 0"
               fill="#62a0ea"
               id="path41" />
            <path
               d="m 18 94 c -1.105469 0 -2 -0.894531 -2 -2 s 0.894531 -2 2 -2 s 2 0.894531 2 2 s -0.894531 2 -2 2 z m 0 0"
               fill="#62a0ea"
               id="path42" />
            <path
               d="m 110 38 c -1.105469 0 -2 -0.894531 -2 -2 s 0.894531 -2 2 -2 s 2 0.894531 2 2 s -0.894531 2 -2 2 z m 0 0"
               fill="#62a0ea"
               id="path43" />
            <path
               d="m 110 30 c -1.105469 0 -2 -0.894531 -2 -2 s 0.894531 -2 2 -2 s 2 0.894531 2 2 s -0.894531 2 -2 2 z m 0 0"
               fill="#62a0ea"
               id="path44" />
            <path
               d="m 110 54 c -1.105469 0 -2 -0.894531 -2 -2 s 0.894531 -2 2 -2 s 2 0.894531 2 2 s -0.894531 2 -2 2 z m 0 0"
               fill="#62a0ea"
               id="path45" />
            <path
               d="m 110 46 c -1.105469 0 -2 -0.894531 -2 -2 s 0.894531 -2 2 -2 s 2 0.894531 2 2 s -0.894531 2 -2 2 z m 0 0"
               fill="#62a0ea"
               id="path46" />
            <path
               d="m 110 70 c -1.105469 0 -2 -0.894531 -2 -2 s 0.894531 -2 2 -2 s 2 0.894531 2 2 s -0.894531 2 -2 2 z m 0 0"
               fill="#62a0ea"
               id="path47" />
            <path
               d="m 110 62 c -1.105469 0 -2 -0.894531 -2 -2 s 0.894531 -2 2 -2 s 2 0.894531 2 2 s -0.894531 2 -2 2 z m 0 0"
               fill="#62a0ea"
               id="path48" />
            <path
               d="m 110 86 c -1.105469 0 -2 -0.894531 -2 -2 s 0.894531 -2 2 -2 s 2 0.894531 2 2 s -0.894531 2 -2 2 z m 0 0"
               fill="#62a0ea"
               id="path49" />
            <path
               d="m 110 78 c -1.105469 0 -2 -0.894531 -2 -2 s 0.894531 -2 2 -2 s 2 0.894531 2 2 s -0.894531 2 -2 2 z m 0 0"
               fill="#62a0ea"
               id="path50" />
            <path
               d="m 110 102 c -1.105469 0 -2 -0.894531 -2 -2 s 0.894531 -2 2 -2 s 2 0.894531 2 2 s -0.894531 2 -2 2 z m 0 0"
               fill="#62a0ea"
               id="path51" />
            <path
               d="m 110 94 c -1.105469 0 -2 -0.894531 -2 -2 s 0.894531 -2 2 -2 s 2 0.894531 2 2 s -0.894531 2 -2 2 z m 0 0"
               fill="#62a0ea"
               id="path52" />
            <path
               d="m 38 18 c 0 1.105469 -0.894531 2 -2 2 s -2 -0.894531 -2 -2 s 0.894531 -2 2 -2 s 2 0.894531 2 2 z m 0 0"
               fill="#62a0ea"
               id="path53" />
            <path
               d="m 30 18 c 0 1.105469 -0.894531 2 -2 2 s -2 -0.894531 -2 -2 s 0.894531 -2 2 -2 s 2 0.894531 2 2 z m 0 0"
               fill="#62a0ea"
               id="path54" />
            <path
               d="m 54 18 c 0 1.105469 -0.894531 2 -2 2 s -2 -0.894531 -2 -2 s 0.894531 -2 2 -2 s 2 0.894531 2 2 z m 0 0"
               fill="#62a0ea"
               id="path55" />
            <path
               d="m 46 18 c 0 1.105469 -0.894531 2 -2 2 s -2 -0.894531 -2 -2 s 0.894531 -2 2 -2 s 2 0.894531 2 2 z m 0 0"
               fill="#62a0ea"
               id="path56" />
            <path
               d="m 70 18 c 0 1.105469 -0.894531 2 -2 2 s -2 -0.894531 -2 -2 s 0.894531 -2 2 -2 s 2 0.894531 2 2 z m 0 0"
               fill="#62a0ea"
               id="path57" />
            <path
               d="m 62 18 c 0 1.105469 -0.894531 2 -2 2 s -2 -0.894531 -2 -2 s 0.894531 -2 2 -2 s 2 0.894531 2 2 z m 0 0"
               fill="#62a0ea"
               id="path58" />
            <path
               d="m 86 18 c 0 1.105469 -0.894531 2 -2 2 s -2 -0.894531 -2 -2 s 0.894531 -2 2 -2 s 2 0.894531 2 2 z m 0 0"
               fill="#62a0ea"
               id="path59" />
            <path
               d="m 78 18 c 0 1.105469 -0.894531 2 -2 2 s -2 -0.894531 -2 -2 s 0.894531 -2 2 -2 s 2 0.894531 2 2 z m 0 0"
               fill="#62a0ea"
               id="path60" />
            <path
               d="m 102 18 c 0 1.105469 -0.894531 2 -2 2 s -2 -0.894531 -2 -2 s 0.894531 -2 2 -2 s 2 0.894531 2 2 z m 0 0"
               fill="#62a0ea"
               id="path61" />
            <path
               d="m 94 18 c 0 1.105469 -0.894531 2 -2 2 s -2 -0.894531 -2 -2 s 0.894531 -2 2 -2 s 2 0.894531 2 2 z m 0 0"
               fill="#62a0ea"
               id="path62" />
            <path
               d="m 110 96 c 3.3125 0 6 2.6875 6 6 s -2.6875 6 -6 6 s -6 -2.6875 -6 -6 s 2.6875 -6 6 -6 z m 0 0"
               fill="#3584e4"
               id="path63" />
            <path
               d="m 110 12 c 3.3125 0 6 2.6875 6 6 s -2.6875 6 -6 6 s -6 -2.6875 -6 -6 s 2.6875 -6 6 -6 z m 0 0"
               fill="#3584e4"
               id="path64" />
            <path
               d="m 18 96 c 3.3125 0 6 2.6875 6 6 s -2.6875 6 -6 6 s -6 -2.6875 -6 -6 s 2.6875 -6 6 -6 z m 0 0"
               fill="#3584e4"
               id="path65" />
            <path
               d="m 18 12 c 3.3125 0 6 2.6875 6 6 s -2.6875 6 -6 6 s -6 -2.6875 -6 -6 s 2.6875 -6 6 -6 z m 0 0"
               fill="#3584e4"
               id="path66" />
            <path
               d="m 18 15 c 1.65625 0 3 1.34375 3 3 s -1.34375 3 -3 3 s -3 -1.34375 -3 -3 s 1.34375 -3 3 -3 z m 0 0"
               fill="#99c1f1"
               id="path67" />
            <path
               d="m 110 15 c 1.65625 0 3 1.34375 3 3 s -1.34375 3 -3 3 s -3 -1.34375 -3 -3 s 1.34375 -3 3 -3 z m 0 0"
               fill="#99c1f1"
               id="path68" />
            <path
               d="m 18 99 c 1.65625 0 3 1.34375 3 3 s -1.34375 3 -3 3 s -3 -1.34375 -3 -3 s 1.34375 -3 3 -3 z m 0 0"
               fill="#99c1f1"
               id="path69" />
            <path
               d="m 110 99 c 1.65625 0 3 1.34375 3 3 s -1.34375 3 -3 3 s -3 -1.34375 -3 -3 s 1.34375 -3 3 -3 z m 0 0"
               fill="#99c1f1"
               id="path70" />
            <path
               d="m 69.976562 19.464844 c 7.210938 7.214844 3.597657 22.523437 -8.074218 34.195312 s -26.980469 15.285156 -34.191406 8.070313 c -7.214844 -7.210938 -3.601563 -22.519531 8.070312 -34.191407 c 11.671875 -11.671874 26.980469 -15.285156 34.195312 -8.074218 z m 0 0"
               fill="url(#d)"
               id="path71" />
            <g
               clip-path="url(#m)"
               id="g72">
              <g
                 mask="url(#n)"
                 id="g71">
                <use
                   transform="matrix(1 0 0 1 -8 -16)"
                   xlink:href="#q"
                   id="use71" />
              </g>
            </g>
            <path
               d="m 28.867188 62.886719 l 29.203124 29.203125 l 2.445313 2.480468 c 8.054687 4.199219 21.636719 -0.464843 31.746094 -10.550781 c 10.085937 -10.109375 14.628906 -23.671875 10.429687 -31.726562 c -10.398437 -10.671875 -21.023437 -21.132813 -31.558594 -31.671875 l -0.125 0.125 c 5.761719 7.695312 1.8125 21.96875 -9.105468 32.914062 c -10.941406 10.917969 -25.214844 14.867188 -32.914063 9.105469 z m 0 0"
               fill="url(#f)"
               id="path72" />
          </g>
        </g>
      </g>
    </mask>
    <mask
       id="u">
      <g
         filter="url(#a)"
         id="g76">
        <rect
           fill-opacity="0.8"
           height="184.32"
           width="184.32"
           x="-28.16"
           y="-28.16"
           id="rect75" />
      </g>
    </mask>
    <linearGradient
       id="v"
       gradientTransform="matrix(0 0.37 -0.98462 0 295.38501 -30.360001)"
       gradientUnits="userSpaceOnUse"
       x1="300"
       x2="428"
       y1="235"
       y2="235">
      <stop
         offset="0"
         stop-color="#f9f06b"
         id="stop76" />
      <stop
         offset="1"
         stop-color="#f5c211"
         id="stop77" />
    </linearGradient>
    <clipPath
       id="w">
      <rect
         height="128"
         width="128"
         id="rect77" />
    </clipPath>
    <clipPath
       id="x">
      <rect
         height="128"
         width="128"
         id="rect78" />
    </clipPath>
  </defs>
  <path
     d="m 16 40 h 96 c 4.417969 0 8 3.582031 8 8 v 60 c 0 4.417969 -3.582031 8 -8 8 h -96 c -4.417969 0 -8 -3.582031 -8 -8 v -60 c 0 -4.417969 3.582031 -8 8 -8 z m 0 0"
     fill="url(#b)"
     id="path78" />
  <path
     d="m 16 28 h 96 c 4.417969 0 8 3.582031 8 8 v 68 c 0 4.417969 -3.582031 8 -8 8 h -96 c -4.417969 0 -8 -3.582031 -8 -8 v -68 c 0 -4.417969 3.582031 -8 8 -8 z m 0 0"
     fill="#deddda"
     id="path79" />
  <g
     mask="url(#t)"
     id="g134">
    <g
       clip-path="url(#x)"
       id="g133">
      <g
         mask="url(#u)"
         id="g132">
        <g
           clip-path="url(#w)"
           id="g131">
          <path
             d="m 128 80.640625 v 47.359375 h -128 v -47.359375 z m 0 0"
             fill="url(#v)"
             id="path130" />
          <path
             d="m 13.308594 80.640625 l 47.355468 47.359375 h 21.214844 l -47.359375 -47.359375 z m 42.421875 0 l 47.363281 47.359375 h 21.214844 l -47.363282 -47.359375 z m 42.429687 0 l 29.839844 29.839844 v -21.210938 l -8.628906 -8.628906 z m -98.160156 7.90625 v 21.214844 l 18.238281 18.238281 h 21.214844 z m 0 0"
             id="path131" />
        </g>
      </g>
    </g>
  </g>
  <g
     mask="url(#c)"
     id="g79">
    <use
       transform="matrix(1 0 0 1 -8 -16)"
       xlink:href="#l"
       id="use79" />
  </g>
  <g
     fill="#62a0ea"
     id="g119">
    <path
       d="m 38 102 c 0 1.105469 -0.894531 2 -2 2 s -2 -0.894531 -2 -2 s 0.894531 -2 2 -2 s 2 0.894531 2 2 z m 0 0"
       id="path80" />
    <path
       d="m 30 102 c 0 1.105469 -0.894531 2 -2 2 s -2 -0.894531 -2 -2 s 0.894531 -2 2 -2 s 2 0.894531 2 2 z m 0 0"
       id="path81" />
    <path
       d="m 54 102 c 0 1.105469 -0.894531 2 -2 2 s -2 -0.894531 -2 -2 s 0.894531 -2 2 -2 s 2 0.894531 2 2 z m 0 0"
       id="path82" />
    <path
       d="m 46 102 c 0 1.105469 -0.894531 2 -2 2 s -2 -0.894531 -2 -2 s 0.894531 -2 2 -2 s 2 0.894531 2 2 z m 0 0"
       id="path83" />
    <path
       d="m 70 102 c 0 1.105469 -0.894531 2 -2 2 s -2 -0.894531 -2 -2 s 0.894531 -2 2 -2 s 2 0.894531 2 2 z m 0 0"
       id="path84" />
    <path
       d="m 62 102 c 0 1.105469 -0.894531 2 -2 2 s -2 -0.894531 -2 -2 s 0.894531 -2 2 -2 s 2 0.894531 2 2 z m 0 0"
       id="path85" />
    <path
       d="m 86 102 c 0 1.105469 -0.894531 2 -2 2 s -2 -0.894531 -2 -2 s 0.894531 -2 2 -2 s 2 0.894531 2 2 z m 0 0"
       id="path86" />
    <path
       d="m 78 102 c 0 1.105469 -0.894531 2 -2 2 s -2 -0.894531 -2 -2 s 0.894531 -2 2 -2 s 2 0.894531 2 2 z m 0 0"
       id="path87" />
    <path
       d="m 102 102 c 0 1.105469 -0.894531 2 -2 2 s -2 -0.894531 -2 -2 s 0.894531 -2 2 -2 s 2 0.894531 2 2 z m 0 0"
       id="path88" />
    <path
       d="m 94 102 c 0 1.105469 -0.894531 2 -2 2 s -2 -0.894531 -2 -2 s 0.894531 -2 2 -2 s 2 0.894531 2 2 z m 0 0"
       id="path89" />
    <path
       d="m 18 38 c -1.105469 0 -2 -0.894531 -2 -2 s 0.894531 -2 2 -2 s 2 0.894531 2 2 s -0.894531 2 -2 2 z m 0 0"
       id="path90" />
    <path
       d="m 18 30 c -1.105469 0 -2 -0.894531 -2 -2 s 0.894531 -2 2 -2 s 2 0.894531 2 2 s -0.894531 2 -2 2 z m 0 0"
       id="path91" />
    <path
       d="m 18 54 c -1.105469 0 -2 -0.894531 -2 -2 s 0.894531 -2 2 -2 s 2 0.894531 2 2 s -0.894531 2 -2 2 z m 0 0"
       id="path92" />
    <path
       d="m 18 46 c -1.105469 0 -2 -0.894531 -2 -2 s 0.894531 -2 2 -2 s 2 0.894531 2 2 s -0.894531 2 -2 2 z m 0 0"
       id="path93" />
    <path
       d="m 18 70 c -1.105469 0 -2 -0.894531 -2 -2 s 0.894531 -2 2 -2 s 2 0.894531 2 2 s -0.894531 2 -2 2 z m 0 0"
       id="path94" />
    <path
       d="m 18 62 c -1.105469 0 -2 -0.894531 -2 -2 s 0.894531 -2 2 -2 s 2 0.894531 2 2 s -0.894531 2 -2 2 z m 0 0"
       id="path95" />
    <path
       d="m 18 86 c -1.105469 0 -2 -0.894531 -2 -2 s 0.894531 -2 2 -2 s 2 0.894531 2 2 s -0.894531 2 -2 2 z m 0 0"
       id="path96" />
    <path
       d="m 18 78 c -1.105469 0 -2 -0.894531 -2 -2 s 0.894531 -2 2 -2 s 2 0.894531 2 2 s -0.894531 2 -2 2 z m 0 0"
       id="path97" />
    <path
       d="m 18 102 c -1.105469 0 -2 -0.894531 -2 -2 s 0.894531 -2 2 -2 s 2 0.894531 2 2 s -0.894531 2 -2 2 z m 0 0"
       id="path98" />
    <path
       d="m 18 94 c -1.105469 0 -2 -0.894531 -2 -2 s 0.894531 -2 2 -2 s 2 0.894531 2 2 s -0.894531 2 -2 2 z m 0 0"
       id="path99" />
    <path
       d="m 110 38 c -1.105469 0 -2 -0.894531 -2 -2 s 0.894531 -2 2 -2 s 2 0.894531 2 2 s -0.894531 2 -2 2 z m 0 0"
       id="path100" />
    <path
       d="m 110 30 c -1.105469 0 -2 -0.894531 -2 -2 s 0.894531 -2 2 -2 s 2 0.894531 2 2 s -0.894531 2 -2 2 z m 0 0"
       id="path101" />
    <path
       d="m 110 54 c -1.105469 0 -2 -0.894531 -2 -2 s 0.894531 -2 2 -2 s 2 0.894531 2 2 s -0.894531 2 -2 2 z m 0 0"
       id="path102" />
    <path
       d="m 110 46 c -1.105469 0 -2 -0.894531 -2 -2 s 0.894531 -2 2 -2 s 2 0.894531 2 2 s -0.894531 2 -2 2 z m 0 0"
       id="path103" />
    <path
       d="m 110 70 c -1.105469 0 -2 -0.894531 -2 -2 s 0.894531 -2 2 -2 s 2 0.894531 2 2 s -0.894531 2 -2 2 z m 0 0"
       id="path104" />
    <path
       d="m 110 62 c -1.105469 0 -2 -0.894531 -2 -2 s 0.894531 -2 2 -2 s 2 0.894531 2 2 s -0.894531 2 -2 2 z m 0 0"
       id="path105" />
    <path
       d="m 110 86 c -1.105469 0 -2 -0.894531 -2 -2 s 0.894531 -2 2 -2 s 2 0.894531 2 2 s -0.894531 2 -2 2 z m 0 0"
       id="path106" />
    <path
       d="m 110 78 c -1.105469 0 -2 -0.894531 -2 -2 s 0.894531 -2 2 -2 s 2 0.894531 2 2 s -0.894531 2 -2 2 z m 0 0"
       id="path107" />
    <path
       d="m 110 102 c -1.105469 0 -2 -0.894531 -2 -2 s 0.894531 -2 2 -2 s 2 0.894531 2 2 s -0.894531 2 -2 2 z m 0 0"
       id="path108" />
    <path
       d="m 110 94 c -1.105469 0 -2 -0.894531 -2 -2 s 0.894531 -2 2 -2 s 2 0.894531 2 2 s -0.894531 2 -2 2 z m 0 0"
       id="path109" />
    <path
       d="m 38 18 c 0 1.105469 -0.894531 2 -2 2 s -2 -0.894531 -2 -2 s 0.894531 -2 2 -2 s 2 0.894531 2 2 z m 0 0"
       id="path110" />
    <path
       d="m 30 18 c 0 1.105469 -0.894531 2 -2 2 s -2 -0.894531 -2 -2 s 0.894531 -2 2 -2 s 2 0.894531 2 2 z m 0 0"
       id="path111" />
    <path
       d="m 54 18 c 0 1.105469 -0.894531 2 -2 2 s -2 -0.894531 -2 -2 s 0.894531 -2 2 -2 s 2 0.894531 2 2 z m 0 0"
       id="path112" />
    <path
       d="m 46 18 c 0 1.105469 -0.894531 2 -2 2 s -2 -0.894531 -2 -2 s 0.894531 -2 2 -2 s 2 0.894531 2 2 z m 0 0"
       id="path113" />
    <path
       d="m 70 18 c 0 1.105469 -0.894531 2 -2 2 s -2 -0.894531 -2 -2 s 0.894531 -2 2 -2 s 2 0.894531 2 2 z m 0 0"
       id="path114" />
    <path
       d="m 62 18 c 0 1.105469 -0.894531 2 -2 2 s -2 -0.894531 -2 -2 s 0.894531 -2 2 -2 s 2 0.894531 2 2 z m 0 0"
       id="path115" />
    <path
       d="m 86 18 c 0 1.105469 -0.894531 2 -2 2 s -2 -0.894531 -2 -2 s 0.894531 -2 2 -2 s 2 0.894531 2 2 z m 0 0"
       id="path116" />
    <path
       d="m 78 18 c 0 1.105469 -0.894531 2 -2 2 s -2 -0.894531 -2 -2 s 0.894531 -2 2 -2 s 2 0.894531 2 2 z m 0 0"
       id="path117" />
    <path
       d="m 102 18 c 0 1.105469 -0.894531 2 -2 2 s -2 -0.894531 -2 -2 s 0.894531 -2 2 -2 s 2 0.894531 2 2 z m 0 0"
       id="path118" />
    <path
       d="m 94 18 c 0 1.105469 -0.894531 2 -2 2 s -2 -0.894531 -2 -2 s 0.894531 -2 2 -2 s 2 0.894531 2 2 z m 0 0"
       id="path119" />
  </g>
  <path
     d="m 110 96 c 3.3125 0 6 2.6875 6 6 s -2.6875 6 -6 6 s -6 -2.6875 -6 -6 s 2.6875 -6 6 -6 z m 0 0"
     fill="#3584e4"
     id="path120" />
  <path
     d="m 110 12 c 3.3125 0 6 2.6875 6 6 s -2.6875 6 -6 6 s -6 -2.6875 -6 -6 s 2.6875 -6 6 -6 z m 0 0"
     fill="#3584e4"
     id="path121" />
  <path
     d="m 18 96 c 3.3125 0 6 2.6875 6 6 s -2.6875 6 -6 6 s -6 -2.6875 -6 -6 s 2.6875 -6 6 -6 z m 0 0"
     fill="#3584e4"
     id="path122" />
  <path
     d="m 18 12 c 3.3125 0 6 2.6875 6 6 s -2.6875 6 -6 6 s -6 -2.6875 -6 -6 s 2.6875 -6 6 -6 z m 0 0"
     fill="#3584e4"
     id="path123" />
  <path
     d="m 18 15 c 1.65625 0 3 1.34375 3 3 s -1.34375 3 -3 3 s -3 -1.34375 -3 -3 s 1.34375 -3 3 -3 z m 0 0"
     fill="#99c1f1"
     id="path124" />
  <path
     d="m 110 15 c 1.65625 0 3 1.34375 3 3 s -1.34375 3 -3 3 s -3 -1.34375 -3 -3 s 1.34375 -3 3 -3 z m 0 0"
     fill="#99c1f1"
     id="path125" />
  <path
     d="m 18 99 c 1.65625 0 3 1.34375 3 3 s -1.34375 3 -3 3 s -3 -1.34375 -3 -3 s 1.34375 -3 3 -3 z m 0 0"
     fill="#99c1f1"
     id="path126" />
  <path
     d="m 110 99 c 1.65625 0 3 1.34375 3 3 s -1.34375 3 -3 3 s -3 -1.34375 -3 -3 s 1.34375 -3 3 -3 z m 0 0"
     fill="#99c1f1"
     id="path127" />
  <path
     d="m 69.976562 19.464844 c 7.210938 7.214844 3.597657 22.523437 -8.074218 34.195312 s -26.980469 15.285156 -34.191406 8.070313 c -7.214844 -7.210938 -3.601563 -22.519531 8.070312 -34.191407 c 11.671875 -11.671874 26.980469 -15.285156 34.195312 -8.074218 z m 0 0"
     fill="url(#d)"
     id="path128" />
  <g
     mask="url(#e)"
     id="g128">
    <use
       transform="matrix(1 0 0 1 -8 -16)"
       xlink:href="#q"
       id="use128" />
  </g>
  <path
     d="m 28.867188 62.886719 l 29.203124 29.203125 l 2.445313 2.480468 c 8.054687 4.199219 21.636719 -0.464843 31.746094 -10.550781 c 10.085937 -10.109375 14.628906 -23.671875 10.429687 -31.726562 c -10.398437 -10.671875 -21.023437 -21.132813 -31.558594 -31.671875 l -0.125 0.125 c 5.761719 7.695312 1.8125 21.96875 -9.105468 32.914062 c -10.941406 10.917969 -25.214844 14.867188 -32.914063 9.105469 z m 0 0"
     fill="url(#f)"
     id="path129" />
</svg>
